<svg width="211" height="52" viewBox="0 0 211 52" fill="none" xmlns="http://www.w3.org/2000/svg">
<path d="M28.1875 32.3125C28.2708 32.4375 28.25 32.8542 28.125 33.5625C28.0417 34.2708 27.8958 35.0417 27.6875 35.875C27.5208 36.7083 27.3333 37.5 27.125 38.25C26.9583 38.9583 26.8125 39.375 26.6875 39.5H26.0625C25.9375 39.5 25.8125 39.4792 25.6875 39.4375C25.8958 41.4375 26.0625 43.0417 26.1875 44.25C26.3125 45.4583 26.375 46.125 26.375 46.25C26.375 46.5417 26.2292 46.9583 25.9375 47.5C25.6875 48.0417 25.3958 48.5417 25.0625 49C24.7292 49.4583 24.375 49.8125 24 50.0625C23.6667 50.3542 23.4375 50.375 23.3125 50.125C23.1042 49.75 22.6667 48.625 22 46.75C21.3333 44.875 20.5833 42.3125 19.75 39.0625C18.9167 38.9792 18.0417 38.8958 17.125 38.8125C16.25 38.7292 15.3542 38.6458 14.4375 38.5625C13.5208 38.4792 12.6042 38.375 11.6875 38.25C10.8125 38.0833 9.95833 37.9375 9.125 37.8125C8.70833 39.6458 8.29167 41.375 7.875 43C7.5 44.625 7.125 46.0417 6.75 47.25C6.41667 48.4583 6.125 49.4167 5.875 50.125C5.625 50.8333 5.4375 51.1875 5.3125 51.1875C4.97917 51.1875 4.64583 50.9792 4.3125 50.5625C3.97917 50.1458 3.66667 49.6458 3.375 49.0625C3.125 48.4792 2.91667 47.875 2.75 47.25C2.58333 46.625 2.5 46.1042 2.5 45.6875C2.58333 44.7292 2.6875 43.7292 2.8125 42.6875C2.97917 41.6458 3.10417 40.6875 3.1875 39.8125C3.3125 38.7708 3.4375 37.75 3.5625 36.75H3.3125C3.14583 36.6667 2.91667 36.4792 2.625 36.1875C2.33333 35.8958 2.04167 35.6042 1.75 35.3125C1.45833 34.9792 1.20833 34.6667 1 34.375C0.791667 34.0417 0.6875 33.7917 0.6875 33.625C0.6875 33.5417 0.979167 33.4583 1.5625 33.375C2.1875 33.2917 3 33.2083 4 33.125C4.33333 30.625 4.6875 28.0208 5.0625 25.3125C5.4375 22.6042 5.8125 20.0625 6.1875 17.6875C6.5625 15.3125 6.91667 13.25 7.25 11.5C7.625 9.70833 7.9375 8.47917 8.1875 7.8125C8.60417 6.6875 9.33333 5.6875 10.375 4.8125C11.4167 3.89583 12.5 3.14583 13.625 2.5625C14.7917 1.9375 15.8958 1.45833 16.9375 1.125C17.9792 0.791667 18.75 0.625 19.25 0.625C19.4583 0.625 19.6875 1.10417 19.9375 2.0625C20.2292 2.97917 20.5208 4.22917 20.8125 5.8125C21.1458 7.39583 21.4792 9.25 21.8125 11.375C22.1875 13.4583 22.5417 15.6667 22.875 18C23.2083 20.3333 23.5208 22.7292 23.8125 25.1875C24.1458 27.6042 24.4583 29.9167 24.75 32.125C26.8333 32.125 27.9792 32.1875 28.1875 32.3125ZM10.3125 32.6875C11.6458 32.6042 12.9792 32.5417 14.3125 32.5C15.6458 32.4583 16.9583 32.3958 18.25 32.3125C17.9167 30.6875 17.5417 28.875 17.125 26.875C16.7917 25.1667 16.3958 23.1667 15.9375 20.875C15.4792 18.5833 15.0208 16.0625 14.5625 13.3125C14.0625 15.7708 13.5625 18.1667 13.0625 20.5C12.5625 22.7917 12.1042 24.8542 11.6875 26.6875C11.2292 28.8125 10.7708 30.8125 10.3125 32.6875ZM48.4375 22.8125C48.4375 23.4792 48.3542 24.4375 48.1875 25.6875C48.0625 26.9375 47.875 28.3125 47.625 29.8125C47.375 31.2708 47.1042 32.7917 46.8125 34.375C46.5625 35.9167 46.2917 37.3333 46 38.625C45.75 39.9167 45.5208 41 45.3125 41.875C45.1458 42.75 45.0417 43.2292 45 43.3125C44.9167 43.4375 44.6875 43.5208 44.3125 43.5625C43.9792 43.5625 43.5833 43.5208 43.125 43.4375C42.7083 43.3542 42.3125 43.2292 41.9375 43.0625C41.6042 42.8958 41.3958 42.6875 41.3125 42.4375C41.2708 42.2708 41.25 41.6875 41.25 40.6875C41.2917 39.6875 41.3333 38.5 41.375 37.125C41.4583 35.7083 41.5417 34.2083 41.625 32.625C41.7083 31 41.7917 29.5 41.875 28.125C42 26.7083 42.0833 25.5 42.125 24.5C42.2083 23.5 42.25 22.8958 42.25 22.6875C42.25 21.9375 42.1667 21.2292 42 20.5625C41.875 19.8542 41.7083 19.25 41.5 18.75C41.2917 18.25 41.0417 17.875 40.75 17.625C40.5 17.3333 40.2708 17.2292 40.0625 17.3125C39.5208 17.3958 39.0625 17.5417 38.6875 17.75C38.3125 17.9167 38 18.1042 37.75 18.3125C37.4583 18.5625 37.2292 18.8542 37.0625 19.1875C37.0208 19.2708 36.9375 19.5208 36.8125 19.9375C36.7292 20.3542 36.6875 20.8333 36.6875 21.375C36.6875 21.5417 36.6875 22.1458 36.6875 23.1875C36.6875 24.1875 36.6667 25.3958 36.625 26.8125C36.625 28.2292 36.6042 29.7708 36.5625 31.4375C36.5625 33.0625 36.5417 34.5833 36.5 36C36.5 37.375 36.4792 38.5625 36.4375 39.5625C36.3958 40.5625 36.3542 41.125 36.3125 41.25C36.2292 41.5 36.0208 41.8542 35.6875 42.3125C35.3542 42.7292 34.9792 43.125 34.5625 43.5C34.1458 43.875 33.75 44.1667 33.375 44.375C33 44.5417 32.75 44.5 32.625 44.25C32.5 44.125 32.375 43.5208 32.25 42.4375C32.125 41.3125 31.9792 39.9583 31.8125 38.375C31.6875 36.75 31.5417 35 31.375 33.125C31.2083 31.2083 31.0625 29.375 30.9375 27.625C30.8125 25.875 30.7083 24.2917 30.625 22.875C30.5417 21.4583 30.4792 20.4375 30.4375 19.8125C30.3958 18.9375 30.3542 17.9583 30.3125 16.875C30.2708 15.75 30.2292 14.7083 30.1875 13.75C30.1875 12.75 30.1875 11.8958 30.1875 11.1875C30.2292 10.4375 30.3125 9.97917 30.4375 9.8125C30.5208 9.64583 30.7917 9.60417 31.25 9.6875C31.75 9.77083 32.2708 9.9375 32.8125 10.1875C33.3958 10.3958 33.9375 10.6667 34.4375 11C34.9375 11.2917 35.2708 11.5833 35.4375 11.875C35.5208 12.125 35.625 12.4167 35.75 12.75C35.875 13.0417 35.9792 13.5417 36.0625 14.25C36.7708 13.8333 37.5417 13.4583 38.375 13.125C39.2083 12.75 40.0208 12.4792 40.8125 12.3125C41.6458 12.1042 42.4375 12.0417 43.1875 12.125C43.9375 12.1667 44.6042 12.375 45.1875 12.75C45.5625 13.0417 45.9375 13.5417 46.3125 14.25C46.7292 14.9583 47.0833 15.7917 47.375 16.75C47.7083 17.7083 47.9583 18.7292 48.125 19.8125C48.3333 20.8542 48.4375 21.8542 48.4375 22.8125ZM66.0625 15.5625C66.1458 15.6875 66.2708 16.2708 66.4375 17.3125C66.6042 18.3542 66.7708 19.6458 66.9375 21.1875C67.1458 22.7292 67.3333 24.3958 67.5 26.1875C67.7083 27.9792 67.8958 29.6875 68.0625 31.3125C68.2708 32.9375 68.4375 34.3958 68.5625 35.6875C68.6875 36.9792 68.7917 37.8542 68.875 38.3125C69 39.0625 69.1458 39.8958 69.3125 40.8125C69.4792 41.6875 69.625 42.5417 69.75 43.375C69.875 44.1667 69.9583 44.8542 70 45.4375C70.0833 46.0208 70.0625 46.375 69.9375 46.5C69.8542 46.625 69.5208 46.6667 68.9375 46.625C68.3542 46.5417 67.7083 46.4167 67 46.25C66.3333 46.0417 65.6875 45.8125 65.0625 45.5625C64.4792 45.2708 64.1042 45 63.9375 44.75C63.7708 44.5417 63.6042 44.2292 63.4375 43.8125C63.3125 43.3958 63.1458 42.6667 62.9375 41.625C62.4792 42.25 61.9792 42.9167 61.4375 43.625C60.9375 44.2917 60.4375 44.9167 59.9375 45.5C59.4375 46.0417 58.9792 46.4792 58.5625 46.8125C58.1458 47.1458 57.8333 47.3125 57.625 47.3125C57.2917 47.3125 56.7917 46.9792 56.125 46.3125C55.4583 45.6042 54.7917 44.8125 54.125 43.9375C53.4583 43.0625 52.8542 42.2292 52.3125 41.4375C51.7708 40.6458 51.4792 40.125 51.4375 39.875C51.3542 39.625 51.3125 38.9375 51.3125 37.8125C51.3542 36.6875 51.3958 35.4375 51.4375 34.0625C51.5208 32.6458 51.6042 31.25 51.6875 29.875C51.7708 28.4583 51.8542 27.3333 51.9375 26.5C52.0208 25.6667 52.1042 24.75 52.1875 23.75C52.3125 22.7083 52.4375 21.75 52.5625 20.875C52.6875 19.9583 52.7917 19.1667 52.875 18.5C53 17.8333 53.1042 17.4375 53.1875 17.3125C53.2708 17.1875 53.5 17.125 53.875 17.125C54.2917 17.0833 54.7083 17.1042 55.125 17.1875C55.5833 17.2292 56 17.3333 56.375 17.5C56.75 17.625 57 17.7917 57.125 18C57.2083 18.1667 57.25 18.7083 57.25 19.625C57.2917 20.5 57.3125 21.5833 57.3125 22.875C57.3125 24.125 57.3125 25.5 57.3125 27C57.3125 28.4583 57.2917 29.8333 57.25 31.125C57.25 32.375 57.2292 33.4583 57.1875 34.375C57.1875 35.25 57.1875 35.7708 57.1875 35.9375C57.1875 36.2708 57.375 36.9167 57.75 37.875C58.1667 38.8333 58.5833 39.75 59 40.625L62.25 36.75C62.2083 36 62.1667 35.0417 62.125 33.875C62.125 32.7083 62.1042 31.4792 62.0625 30.1875C62.0208 28.8958 61.9792 27.5833 61.9375 26.25C61.8958 24.9167 61.875 23.7083 61.875 22.625C61.875 21.5417 61.875 20.6458 61.875 19.9375C61.875 19.2292 61.8958 18.8125 61.9375 18.6875C62.0625 18.4375 62.3125 18.1042 62.6875 17.6875C63.0625 17.2708 63.4792 16.875 63.9375 16.5C64.3958 16.125 64.8125 15.8333 65.1875 15.625C65.6042 15.4167 65.8958 15.3958 66.0625 15.5625ZM90.25 22.8125C90.25 23.4792 90.1667 24.4375 90 25.6875C89.875 26.9375 89.6875 28.3125 89.4375 29.8125C89.1875 31.2708 88.9167 32.7917 88.625 34.375C88.375 35.9167 88.1042 37.3333 87.8125 38.625C87.5625 39.9167 87.3333 41 87.125 41.875C86.9583 42.75 86.8542 43.2292 86.8125 43.3125C86.7292 43.4375 86.5 43.5208 86.125 43.5625C85.7917 43.5625 85.3958 43.5208 84.9375 43.4375C84.5208 43.3542 84.125 43.2292 83.75 43.0625C83.4167 42.8958 83.2083 42.6875 83.125 42.4375C83.0833 42.2708 83.0625 41.6875 83.0625 40.6875C83.1042 39.6875 83.1458 38.5 83.1875 37.125C83.2708 35.7083 83.3542 34.2083 83.4375 32.625C83.5208 31 83.6042 29.5 83.6875 28.125C83.8125 26.7083 83.8958 25.5 83.9375 24.5C84.0208 23.5 84.0625 22.8958 84.0625 22.6875C84.0625 21.9375 83.9792 21.2292 83.8125 20.5625C83.6875 19.8542 83.5208 19.25 83.3125 18.75C83.1042 18.25 82.8542 17.875 82.5625 17.625C82.3125 17.3333 82.0833 17.2292 81.875 17.3125C81.3333 17.3958 80.875 17.5417 80.5 17.75C80.125 17.9167 79.8125 18.1042 79.5625 18.3125C79.2708 18.5625 79.0417 18.8542 78.875 19.1875C78.8333 19.2708 78.75 19.5208 78.625 19.9375C78.5417 20.3542 78.5 20.8333 78.5 21.375C78.5 21.5417 78.5 22.1458 78.5 23.1875C78.5 24.1875 78.4792 25.3958 78.4375 26.8125C78.4375 28.2292 78.4167 29.7708 78.375 31.4375C78.375 33.0625 78.3542 34.5833 78.3125 36C78.3125 37.375 78.2917 38.5625 78.25 39.5625C78.2083 40.5625 78.1667 41.125 78.125 41.25C78.0417 41.5 77.8333 41.8542 77.5 42.3125C77.1667 42.7292 76.7917 43.125 76.375 43.5C75.9583 43.875 75.5625 44.1667 75.1875 44.375C74.8125 44.5417 74.5625 44.5 74.4375 44.25C74.3125 44.125 74.1875 43.5208 74.0625 42.4375C73.9375 41.3125 73.7917 39.9583 73.625 38.375C73.5 36.75 73.3542 35 73.1875 33.125C73.0208 31.2083 72.875 29.375 72.75 27.625C72.625 25.875 72.5208 24.2917 72.4375 22.875C72.3542 21.4583 72.2917 20.4375 72.25 19.8125C72.2083 18.9375 72.1667 17.9583 72.125 16.875C72.0833 15.75 72.0417 14.7083 72 13.75C72 12.75 72 11.8958 72 11.1875C72.0417 10.4375 72.125 9.97917 72.25 9.8125C72.3333 9.64583 72.6042 9.60417 73.0625 9.6875C73.5625 9.77083 74.0833 9.9375 74.625 10.1875C75.2083 10.3958 75.75 10.6667 76.25 11C76.75 11.2917 77.0833 11.5833 77.25 11.875C77.3333 12.125 77.4375 12.4167 77.5625 12.75C77.6875 13.0417 77.7917 13.5417 77.875 14.25C78.5833 13.8333 79.3542 13.4583 80.1875 13.125C81.0208 12.75 81.8333 12.4792 82.625 12.3125C83.4583 12.1042 84.25 12.0417 85 12.125C85.75 12.1667 86.4167 12.375 87 12.75C87.375 13.0417 87.75 13.5417 88.125 14.25C88.5417 14.9583 88.8958 15.7917 89.1875 16.75C89.5208 17.7083 89.7708 18.7292 89.9375 19.8125C90.1458 20.8542 90.25 21.8542 90.25 22.8125ZM104 14.8125C103.833 14.6458 103.479 14.4792 102.938 14.3125C102.396 14.1458 102.021 14.2083 101.812 14.5C101.688 14.6667 101.479 15.2083 101.188 16.125C100.896 17.0417 100.583 18.2083 100.25 19.625C99.9583 21.0417 99.6875 22.6667 99.4375 24.5C99.2292 26.3333 99.125 28.2292 99.125 30.1875C99.125 31.6042 99.1875 32.9583 99.3125 34.25C99.4375 35.5 99.5833 36.6042 99.75 37.5625C99.9583 38.5208 100.188 39.2917 100.438 39.875C100.729 40.4583 101.021 40.7708 101.312 40.8125C101.562 40.8125 101.854 40.5208 102.188 39.9375C102.562 39.3542 102.917 38.6875 103.25 37.9375C103.625 37.1458 103.938 36.4167 104.188 35.75C104.479 35.0417 104.688 34.5833 104.812 34.375C105.146 33.8333 105.583 33.375 106.125 33C106.667 32.5833 107.125 32.375 107.5 32.375C107.708 32.375 107.854 32.5208 107.938 32.8125C108.062 33.1042 108.146 33.4583 108.188 33.875C108.271 34.25 108.312 34.6458 108.312 35.0625C108.312 35.4792 108.312 35.8125 108.312 36.0625C108.312 36.5208 108.229 37.375 108.062 38.625C107.896 39.875 107.646 41.1458 107.312 42.4375C107.021 43.7292 106.667 44.875 106.25 45.875C105.875 46.875 105.458 47.3542 105 47.3125C104.542 47.2708 103.854 47.0625 102.938 46.6875C102.021 46.3125 101.083 45.875 100.125 45.375C99.2083 44.875 98.3542 44.375 97.5625 43.875C96.8125 43.3333 96.3542 42.9167 96.1875 42.625C96.0208 42.3333 95.7708 41.625 95.4375 40.5C95.1042 39.3333 94.75 37.9167 94.375 36.25C94.0417 34.5833 93.75 32.75 93.5 30.75C93.25 28.75 93.125 26.75 93.125 24.75C93.125 22.75 93.1667 20.7708 93.25 18.8125C93.375 16.8542 93.5625 15.1042 93.8125 13.5625C94.0625 12.0208 94.375 10.7708 94.75 9.8125C95.1667 8.85417 95.6667 8.35417 96.25 8.3125C97.875 8.14583 99.5 8.29167 101.125 8.75C102.792 9.16667 104.271 9.75 105.562 10.5C106.896 11.2083 107.979 11.9792 108.812 12.8125C109.646 13.6042 110.083 14.2708 110.125 14.8125C110.167 15.3958 110.125 16.2083 110 17.25C109.917 18.2917 109.771 19.3542 109.562 20.4375C109.396 21.4792 109.188 22.4375 108.938 23.3125C108.729 24.1458 108.542 24.625 108.375 24.75C108 25.125 107.562 25.5208 107.062 25.9375C106.562 26.3542 106.083 26.4375 105.625 26.1875C105.458 26.1042 105.312 25.7917 105.188 25.25C105.062 24.6667 104.938 23.9583 104.812 23.125C104.729 22.2917 104.646 21.3958 104.562 20.4375C104.479 19.4792 104.396 18.6042 104.312 17.8125C104.271 16.9792 104.208 16.2917 104.125 15.75C104.083 15.1667 104.042 14.8542 104 14.8125ZM119.312 22.125C119.396 22.3333 119.438 23 119.438 24.125C119.479 25.2083 119.479 26.5417 119.438 28.125C119.438 29.6667 119.396 31.3333 119.312 33.125C119.229 34.875 119.125 36.5417 119 38.125C118.917 39.6667 118.812 41 118.688 42.125C118.562 43.2083 118.438 43.8542 118.312 44.0625C117.938 44.6458 117.375 45.0208 116.625 45.1875C115.875 45.3125 115.333 45.3333 115 45.25C114.833 45.25 114.646 44.7708 114.438 43.8125C114.271 42.8542 114.104 41.6458 113.938 40.1875C113.771 38.7292 113.625 37.1458 113.5 35.4375C113.375 33.7292 113.271 32.1042 113.188 30.5625C113.104 28.9792 113.062 27.6042 113.062 26.4375C113.062 25.2708 113.104 24.5208 113.188 24.1875C113.312 23.6458 113.667 23.1667 114.25 22.75C114.875 22.3333 115.521 22.0208 116.188 21.8125C116.896 21.6042 117.542 21.5208 118.125 21.5625C118.75 21.5625 119.146 21.75 119.312 22.125ZM119.625 12C119.792 12.3333 119.854 12.7917 119.812 13.375C119.812 13.9583 119.75 14.5625 119.625 15.1875C119.5 15.8125 119.333 16.4167 119.125 17C118.917 17.5833 118.708 18.0417 118.5 18.375C118.083 18.9583 117.458 19.3333 116.625 19.5C115.833 19.625 115.25 19.6458 114.875 19.5625C114.583 19.5208 114.292 19.3333 114 19C113.708 18.625 113.458 18.1875 113.25 17.6875C113.042 17.1458 112.896 16.5625 112.812 15.9375C112.729 15.3125 112.75 14.7292 112.875 14.1875C113 13.6458 113.396 13.1667 114.062 12.75C114.729 12.2917 115.438 11.9583 116.188 11.75C116.938 11.5 117.646 11.3958 118.312 11.4375C118.979 11.4375 119.417 11.625 119.625 12ZM140.5 16.125C140.75 16.4167 140.979 16.7292 141.188 17.0625C141.396 17.3542 141.583 17.7708 141.75 18.3125C141.917 18.8125 142.042 19.4792 142.125 20.3125C142.25 21.1458 142.312 22.2292 142.312 23.5625C142.312 25.6875 142.25 27.8333 142.125 30C142.042 32.125 141.958 34 141.875 35.625C141.833 37.0833 141.792 38.4375 141.75 39.6875C141.708 40.9375 141.667 42.0417 141.625 43C141.583 43.9167 141.521 44.6458 141.438 45.1875C141.396 45.7292 141.354 46.0208 141.312 46.0625C141.146 46.1875 140.875 46.1458 140.5 45.9375C140.167 45.6875 139.792 45.375 139.375 45C139 44.625 138.646 44.2292 138.312 43.8125C137.979 43.3958 137.771 43.0625 137.688 42.8125C137.688 42.6042 137.625 42 137.5 41C136.5 41.5833 135.396 42 134.188 42.25C132.979 42.4583 131.771 42.5417 130.562 42.5C129.396 42.4167 128.312 42.1875 127.312 41.8125C126.312 41.4375 125.562 40.9375 125.062 40.3125C124.854 40.0625 124.667 39.6875 124.5 39.1875C124.375 38.6875 124.25 38.125 124.125 37.5C124.042 36.8333 123.958 36.1458 123.875 35.4375C123.792 34.6875 123.729 34 123.688 33.375C123.604 31.75 123.812 30.3542 124.312 29.1875C124.812 27.9792 125.729 27.0833 127.062 26.5C127.646 26.25 128.417 26.125 129.375 26.125C130.375 26.0833 131.354 26.125 132.312 26.25C133.312 26.3333 134.208 26.4583 135 26.625C135.792 26.75 136.292 26.8542 136.5 26.9375C136.333 24.8125 136.208 22.9792 136.125 21.4375C136.042 19.8542 135.875 18.8333 135.625 18.375C135.417 18.0833 135.167 17.7917 134.875 17.5C134.625 17.2917 134.292 17.0625 133.875 16.8125C133.458 16.5625 132.958 16.375 132.375 16.25C131.917 16.1667 131.5 16.3542 131.125 16.8125C130.792 17.2292 130.479 17.9792 130.188 19.0625C129.938 20.1042 129.792 21.7083 129.75 23.875C128.292 23.9167 127.167 23.9167 126.375 23.875C125.625 23.7917 125.062 23.7083 124.688 23.625C124.229 23.5417 123.958 23.4375 123.875 23.3125C123.792 23.1458 123.833 22.5417 124 21.5C124.167 20.4167 124.396 19.25 124.688 18C125.021 16.75 125.396 15.5625 125.812 14.4375C126.271 13.3125 126.75 12.6042 127.25 12.3125C128.25 11.7292 129.438 11.5208 130.812 11.6875C132.229 11.8542 133.604 12.2083 134.938 12.75C136.271 13.2917 137.458 13.8958 138.5 14.5625C139.542 15.2292 140.208 15.75 140.5 16.125ZM136.625 34.375C136.625 34.1667 136.646 33.8958 136.688 33.5625C136.729 33.1875 136.75 32.8125 136.75 32.4375C136.75 32.0625 136.729 31.7083 136.688 31.375C136.688 31.0417 136.646 30.7917 136.562 30.625C136.438 30.375 136.062 30.1667 135.438 30C134.854 29.8333 134.188 29.7292 133.438 29.6875C132.688 29.6042 131.979 29.5833 131.312 29.625C130.646 29.625 130.188 29.7083 129.938 29.875C129.604 30.0833 129.354 30.375 129.188 30.75C129.062 31.125 128.979 31.7083 128.938 32.5C128.938 32.875 128.958 33.2708 129 33.6875C129.042 34.1042 129.083 34.5208 129.125 34.9375C129.208 35.3125 129.292 35.6458 129.375 35.9375C129.5 36.2292 129.625 36.4167 129.75 36.5C130.042 36.7083 130.542 36.8958 131.25 37.0625C132 37.1875 132.75 37.2292 133.5 37.1875C134.25 37.1042 134.938 36.8542 135.562 36.4375C136.188 36.0208 136.542 35.3333 136.625 34.375ZM174.812 16.125C175.062 16.4167 175.292 16.7292 175.5 17.0625C175.708 17.3542 175.896 17.7708 176.062 18.3125C176.229 18.8125 176.354 19.4792 176.438 20.3125C176.562 21.1458 176.625 22.2292 176.625 23.5625C176.625 25.6875 176.562 27.8333 176.438 30C176.354 32.125 176.271 34 176.188 35.625C176.146 37.0833 176.104 38.4375 176.062 39.6875C176.021 40.9375 175.979 42.0417 175.938 43C175.896 43.9167 175.833 44.6458 175.75 45.1875C175.708 45.7292 175.667 46.0208 175.625 46.0625C175.458 46.1875 175.188 46.1458 174.812 45.9375C174.479 45.6875 174.104 45.375 173.688 45C173.312 44.625 172.958 44.2292 172.625 43.8125C172.292 43.3958 172.083 43.0625 172 42.8125C172 42.6042 171.938 42 171.812 41C170.812 41.5833 169.708 42 168.5 42.25C167.292 42.4583 166.083 42.5417 164.875 42.5C163.708 42.4167 162.625 42.1875 161.625 41.8125C160.625 41.4375 159.875 40.9375 159.375 40.3125C159.167 40.0625 158.979 39.6875 158.812 39.1875C158.688 38.6875 158.562 38.125 158.438 37.5C158.354 36.8333 158.271 36.1458 158.188 35.4375C158.104 34.6875 158.042 34 158 33.375C157.917 31.75 158.125 30.3542 158.625 29.1875C159.125 27.9792 160.042 27.0833 161.375 26.5C161.958 26.25 162.729 26.125 163.688 26.125C164.688 26.0833 165.667 26.125 166.625 26.25C167.625 26.3333 168.521 26.4583 169.312 26.625C170.104 26.75 170.604 26.8542 170.812 26.9375C170.646 24.8125 170.521 22.9792 170.438 21.4375C170.354 19.8542 170.188 18.8333 169.938 18.375C169.729 18.0833 169.479 17.7917 169.188 17.5C168.938 17.2917 168.604 17.0625 168.188 16.8125C167.771 16.5625 167.271 16.375 166.688 16.25C166.229 16.1667 165.812 16.3542 165.438 16.8125C165.104 17.2292 164.792 17.9792 164.5 19.0625C164.25 20.1042 164.104 21.7083 164.062 23.875C162.604 23.9167 161.479 23.9167 160.688 23.875C159.938 23.7917 159.375 23.7083 159 23.625C158.542 23.5417 158.271 23.4375 158.188 23.3125C158.104 23.1458 158.146 22.5417 158.312 21.5C158.479 20.4167 158.708 19.25 159 18C159.333 16.75 159.708 15.5625 160.125 14.4375C160.583 13.3125 161.062 12.6042 161.562 12.3125C162.562 11.7292 163.75 11.5208 165.125 11.6875C166.542 11.8542 167.917 12.2083 169.25 12.75C170.583 13.2917 171.771 13.8958 172.812 14.5625C173.854 15.2292 174.521 15.75 174.812 16.125ZM170.938 34.375C170.938 34.1667 170.958 33.8958 171 33.5625C171.042 33.1875 171.062 32.8125 171.062 32.4375C171.062 32.0625 171.042 31.7083 171 31.375C171 31.0417 170.958 30.7917 170.875 30.625C170.75 30.375 170.375 30.1667 169.75 30C169.167 29.8333 168.5 29.7292 167.75 29.6875C167 29.6042 166.292 29.5833 165.625 29.625C164.958 29.625 164.5 29.7083 164.25 29.875C163.917 30.0833 163.667 30.375 163.5 30.75C163.375 31.125 163.292 31.7083 163.25 32.5C163.25 32.875 163.271 33.2708 163.312 33.6875C163.354 34.1042 163.396 34.5208 163.438 34.9375C163.521 35.3125 163.604 35.6458 163.688 35.9375C163.812 36.2292 163.938 36.4167 164.062 36.5C164.354 36.7083 164.854 36.8958 165.562 37.0625C166.312 37.1875 167.062 37.2292 167.812 37.1875C168.562 37.1042 169.25 36.8542 169.875 36.4375C170.5 36.0208 170.854 35.3333 170.938 34.375ZM185.312 30.9375C185.979 30.6875 186.729 30.4167 187.562 30.125C188.438 29.7917 189.271 29.5 190.062 29.25C190.854 28.9583 191.562 28.7083 192.188 28.5C192.812 28.2917 193.271 28.125 193.562 28C193.521 27.5417 193.458 27.0208 193.375 26.4375C193.333 25.8125 193.271 25.2292 193.188 24.6875C193.104 24.1042 193 23.6042 192.875 23.1875C192.75 22.7708 192.625 22.5208 192.5 22.4375C192.167 22.3125 191.604 22.2083 190.812 22.125C190.062 22 189.271 22.0208 188.438 22.1875C187.646 22.3542 186.917 22.6667 186.25 23.125C185.583 23.5833 185.208 24.3125 185.125 25.3125C185.042 25.9792 185.021 26.8125 185.062 27.8125C185.104 28.8125 185.188 29.8542 185.312 30.9375ZM198.875 31.9375C198.833 32.0208 198.333 32.1875 197.375 32.4375C196.417 32.6875 195.271 32.9583 193.938 33.25C192.604 33.5 191.188 33.7708 189.688 34.0625C188.188 34.3125 186.896 34.5208 185.812 34.6875C186.021 36.3542 186.271 37.8542 186.562 39.1875C186.854 40.4792 187.104 41.2917 187.312 41.625C187.521 41.9167 187.792 42.1875 188.125 42.4375C188.417 42.6458 188.771 42.8542 189.188 43.0625C189.646 43.2292 190.188 43.3542 190.812 43.4375C191.271 43.5625 191.708 43.3958 192.125 42.9375C192.458 42.5208 192.75 41.7917 193 40.75C193.292 39.7083 193.438 38.0625 193.438 35.8125C194.729 35.6042 195.729 35.4792 196.438 35.4375C197.188 35.3958 197.729 35.3958 198.062 35.4375C198.479 35.4792 198.729 35.5417 198.812 35.625C198.854 35.75 198.854 36.0625 198.812 36.5625C198.771 37.0625 198.667 37.6875 198.5 38.4375C198.375 39.1458 198.208 39.9375 198 40.8125C197.833 41.6458 197.625 42.4583 197.375 43.25C197.125 44 196.854 44.6875 196.562 45.3125C196.271 45.8958 195.958 46.3125 195.625 46.5625C194.625 47.3125 193.375 47.6875 191.875 47.6875C190.375 47.6458 188.896 47.4375 187.438 47.0625C185.979 46.6458 184.667 46.1667 183.5 45.625C182.333 45.0417 181.604 44.5625 181.312 44.1875C181.104 43.9375 180.917 43.3125 180.75 42.3125C180.583 41.2708 180.438 40.0208 180.312 38.5625C180.229 37.1042 180.167 35.5 180.125 33.75C180.083 32 180.104 30.2917 180.188 28.625C180.312 26.9583 180.479 25.4167 180.688 24C180.938 22.5833 181.271 21.4375 181.688 20.5625C182.312 19.3125 183.333 18.2917 184.75 17.5C186.167 16.7083 187.667 16.1667 189.25 15.875C190.833 15.5833 192.333 15.5417 193.75 15.75C195.208 15.9583 196.292 16.4167 197 17.125C197.417 17.5417 197.792 18.375 198.125 19.625C198.458 20.8333 198.667 22.3125 198.75 24.0625C198.75 24.2292 198.771 24.7083 198.812 25.5C198.854 26.2917 198.875 27.1458 198.875 28.0625C198.917 28.9375 198.938 29.7708 198.938 30.5625C198.938 31.3542 198.917 31.8125 198.875 31.9375ZM200.375 11.5C200.292 11.5833 200.042 11.6667 199.625 11.75C199.25 11.7917 198.792 11.8125 198.25 11.8125C197.708 11.8125 197.167 11.7917 196.625 11.75C196.125 11.6667 195.75 11.5208 195.5 11.3125C195.417 11.2292 195.208 11.0417 194.875 10.75C194.542 10.4583 194.146 10.125 193.688 9.75C193.271 9.33333 192.812 8.91667 192.312 8.5C191.812 8.04167 191.354 7.625 190.938 7.25C190.479 7.625 189.979 8.04167 189.438 8.5C188.938 8.95833 188.458 9.39583 188 9.8125C187.542 10.1875 187.146 10.5417 186.812 10.875C186.479 11.1667 186.25 11.3333 186.125 11.375C185.75 11.5833 185.292 11.7292 184.75 11.8125C184.208 11.8542 183.688 11.875 183.188 11.875C182.688 11.8333 182.25 11.7708 181.875 11.6875C181.542 11.5625 181.354 11.4375 181.312 11.3125C181.229 11.1458 181.479 10.6875 182.062 9.9375C182.688 9.1875 183.396 8.375 184.188 7.5C185.021 6.625 185.833 5.8125 186.625 5.0625C187.417 4.3125 187.979 3.85417 188.312 3.6875C188.562 3.5625 188.958 3.47917 189.5 3.4375C190.042 3.35417 190.604 3.33333 191.188 3.375C191.771 3.375 192.292 3.39583 192.75 3.4375C193.25 3.47917 193.562 3.52083 193.688 3.5625C193.896 3.6875 194.208 3.95833 194.625 4.375C195.042 4.79167 195.5 5.27083 196 5.8125C196.542 6.35417 197.062 6.9375 197.562 7.5625C198.104 8.1875 198.583 8.77083 199 9.3125C199.458 9.85417 199.812 10.3333 200.062 10.75C200.312 11.1667 200.417 11.4167 200.375 11.5ZM210.625 3.125C210.708 3.375 210.729 4.35417 210.688 6.0625C210.688 7.72917 210.625 9.79167 210.5 12.25C210.417 14.6667 210.292 17.2708 210.125 20.0625C209.958 22.8125 209.771 25.4167 209.562 27.875C209.396 30.2917 209.208 32.3542 209 34.0625C208.833 35.7292 208.667 36.6875 208.5 36.9375C208.083 37.6042 207.458 38 206.625 38.125C205.792 38.2083 205.167 38.2083 204.75 38.125C204.625 38.0833 204.5 37.625 204.375 36.75C204.25 35.875 204.125 34.7083 204 33.25C203.917 31.7917 203.833 30.125 203.75 28.25C203.667 26.375 203.604 24.4583 203.562 22.5C203.521 20.5 203.479 18.5417 203.438 16.625C203.396 14.6667 203.375 12.8958 203.375 11.3125C203.375 9.72917 203.396 8.39583 203.438 7.3125C203.479 6.22917 203.542 5.54167 203.625 5.25C203.792 4.66667 204.208 4.14583 204.875 3.6875C205.542 3.22917 206.271 2.89583 207.062 2.6875C207.854 2.4375 208.583 2.35417 209.25 2.4375C209.958 2.47917 210.417 2.70833 210.625 3.125ZM209.562 42.5C209.729 42.7917 209.792 43.2083 209.75 43.75C209.75 44.25 209.688 44.7917 209.562 45.375C209.479 45.9167 209.333 46.4583 209.125 47C208.958 47.5 208.771 47.9167 208.562 48.25C208.396 48.5 208.167 48.7083 207.875 48.875C207.583 49.0417 207.271 49.1458 206.938 49.1875C206.604 49.2708 206.292 49.3125 206 49.3125C205.708 49.3125 205.479 49.3125 205.312 49.3125C205.062 49.2708 204.792 49.0833 204.5 48.75C204.25 48.4167 204.021 48.0208 203.812 47.5625C203.646 47.0625 203.521 46.5417 203.438 46C203.354 45.4167 203.375 44.875 203.5 44.375C203.625 43.9167 203.979 43.5 204.562 43.125C205.146 42.7083 205.771 42.3958 206.438 42.1875C207.146 41.9792 207.792 41.8958 208.375 41.9375C209 41.9375 209.396 42.125 209.562 42.5Z" fill="#BA55D3"/>
</svg>
